<svg xmlns="http://www.w3.org/2000/svg" viewBox="0 0 24 24"><path fill="currentColor" d="M12 15.6q1.5 0 2.55-1.05Q15.6 13.5 15.6 12t-1.05-2.55Q13.5 8.4 12 8.4t-2.55 1.05Q8.4 10.5 8.4 12t1.05 2.55Q10.5 15.6 12 15.6Zm7.95-3.6q0 .375-.025.713-.025.337-.075.687l2.05 1.6q.175.125.212.35.038.225-.062.425l-2 3.45q-.125.225-.362.3-.238.075-.463-.025l-2.4-.975q-.65.525-1.35.925-.7.4-1.5.6l-.4 2.5q-.05.25-.238.4-.187.15-.412.15h-4q-.225 0-.413-.15-.187-.15-.237-.4l-.4-2.5q-.8-.2-1.5-.6t-1.35-.925l-2.4.975q-.225.1-.462.025-.238-.075-.363-.3l-2-3.45q-.1-.2-.062-.425.037-.225.212-.35l2.05-1.6q-.05-.35-.075-.687Q4.05 12.375 4.05 12q0-.375.025-.713.025-.337.075-.687L2.1 9q-.175-.125-.212-.35-.038-.225.062-.425l2-3.45q.125-.225.363-.3.237-.075.462.025l2.4.975q.65-.525 1.35-.925.7-.4 1.5-.6l.4-2.5q.05-.25.238-.4.188-.15.413-.15h4q.225 0 .412.15.188.15.238.4l.4 2.5q.8.2 1.5.6t1.35.925l2.4-.975q.225-.1.463-.025.237.075.362.3l2 3.45q.1.2.062.425-.037.225-.212.35l-2.05 1.6q.05.35.075.687.025.338.025.713ZM12 14.3q-.95 0-1.625-.675T9.7 12q0-.95.675-1.625T12 9.7q.95 0 1.625.675T14.3 12q0 .95-.675 1.625T12 14.3Z"/></svg>